<svg xmlns="http://www.w3.org/2000/svg" width="13.049" height="16.132" viewBox="0 0 13.049 16.132">
  <path id="evernote" d="M868.505,32.1a19.559,19.559,0,0,1-2.56-.157,1.792,1.792,0,0,1-.437-.133.753.753,0,0,1-.16-.1l-.015-.012a.452.452,0,0,1-.1-.14,1.944,1.944,0,0,1-.15-.52,5.463,5.463,0,0,1-.068-.92c0-.162,0-.5.018-.712a2.136,2.136,0,0,1,.229-.889,1.456,1.456,0,0,1,.791-.472,3.19,3.19,0,0,1,.632-.037c.556,0,1.273.037,1.281.037v.927l-.437-.031a1.22,1.22,0,0,0-.2-.017c-.218,0-.49.057-.548.329a.737.737,0,0,0,.208.757,5.7,5.7,0,0,0,1.415.094,7.589,7.589,0,0,0,1.33-.065.992.992,0,0,0,.229-.5,3.339,3.339,0,0,0,.058-.679c0-.364-.034-.75-.067-1.084a1.28,1.28,0,0,0-.1-.412.9.9,0,0,0-.415-.314,6.447,6.447,0,0,0-1.152-.171c-.232-.023-.433-.043-.553-.063l-.2-.032c-.289-.046-.587-.094-.856-.161a1.024,1.024,0,0,1-.441-.338,1.845,1.845,0,0,0-.153-.155,2.293,2.293,0,0,1-.506-.654l-.043-.079,0-.009c-.036-.067-.068-.125-.1-.174a.5.5,0,0,0-.068-.09.189.189,0,0,0-.044-.033.135.135,0,0,0-.061-.016.1.1,0,0,0-.062.022.14.14,0,0,0-.033.037.279.279,0,0,0-.03.077,1.4,1.4,0,0,0-.029.2c-.008.084-.014.183-.02.279a6.662,6.662,0,0,1-.078.756,1.331,1.331,0,0,1-.139.429.347.347,0,0,1-.1.114.213.213,0,0,1-.122.038c-.16,0-.481-.024-.857-.063-.7-.074-1.414-.184-1.972-.3a7.888,7.888,0,0,1-.859-.224,2.571,2.571,0,0,1-.307-.125.751.751,0,0,1-.186-.123,1.736,1.736,0,0,1-.3-.467,8.272,8.272,0,0,1-.477-1.412c-.08-.305-.175-.606-.268-.9a9.612,9.612,0,0,1-.4-1.517.88.88,0,0,1,.12-.678.551.551,0,0,1,.336-.205c.015,0,1.6.025,2.673.025a9.223,9.223,0,0,0,1.024-.025,1.04,1.04,0,0,1,.26-.022c.18,0,.384-.007.428-.085a1.685,1.685,0,0,0,.109-.63c0-.235,0-1.016,0-1.812v-.072c0-.817,0-1.632,0-1.871,0-.534.57-.544.576-.544h.138c.147,0,.641,0,.829.028a1.883,1.883,0,0,1,.548.144,1.057,1.057,0,0,1,.379.311,1.684,1.684,0,0,1,.278.588c.076.282,3.112.822,3.143.827l.555.072c1.293.112,1.332.626,1.4,1.56l.007.086.012.154c.075.985.2,2.634.2,4.409,0,.165,0,.338,0,.517a22.919,22.919,0,0,1-.346,5.151,4.338,4.338,0,0,1-.81,1.657,1.331,1.331,0,0,1-.583.46A7.331,7.331,0,0,1,868.505,32.1Zm-.029-11.062c-.659,0-1.4.955-1.443,1.488a.3.3,0,0,0,.262.368,2.049,2.049,0,0,0,.306.028.491.491,0,0,0,.338-.1.693.693,0,0,1,.432-.135l.114,0a2.274,2.274,0,0,1,.685.114,2.2,2.2,0,0,0,.487.1l.059,0c.1,0,.163-.02.194-.062.042-.057.014-.144-.012-.228a.483.483,0,0,1-.03-.131c0-.013-.466-1.377-1.346-1.436Zm-6.18-1.055c-.681,0-3.026-.022-3.292-.024l3.94-3.992.023,3.2a.952.952,0,0,1-.2.633A.615.615,0,0,1,862.3,19.985Z" transform="translate(-859.005 -15.969)" fill="#d4d4d4"/>
</svg>
