<svg xmlns="http://www.w3.org/2000/svg" width="15.999" height="16" viewBox="0 0 15.999 16">
  <path id="Facebook" d="M965,32H953a2,2,0,0,1-2-2V18a2,2,0,0,1,2-2h12a2,2,0,0,1,2,2V30A2,2,0,0,1,965,32Zm-5.99-10-.031,1.961h1.01v5.035h2V23.958h1.823L964.057,22h-2.029a1.018,1.018,0,0,1,.149-.9,3.45,3.45,0,0,1,1.173-.11c.339,0,.623.01.626.01l-.012-1.977c-.348,0-.476-.009-.6-.017s-.26-.018-.631-.018a3.23,3.23,0,0,0-1.6.343,1.681,1.681,0,0,0-.855.871,3.472,3.472,0,0,0-.262,1.544V22H959.01Z" transform="translate(-951 -16)" fill="#d4d4d4"/>
</svg>
