<svg xmlns="http://www.w3.org/2000/svg" width="15.99" height="15.951" viewBox="0 0 15.99 15.951">
  <path id="linked_in" data-name="linked in" d="M940.58,32h-9.15a3.424,3.424,0,0,1-3.42-3.42V19.47a3.424,3.424,0,0,1,3.42-3.42h9.15A3.424,3.424,0,0,1,944,19.47V28.58A3.424,3.424,0,0,1,940.58,32ZM931,22.97V29h2V22.97Zm3.06-.059v6.06h1.88v-4a.97.97,0,0,1,1.06-1,1.033,1.033,0,0,1,.869.332,1.065,1.065,0,0,1,.131.825v3.812h2V25.313c0-1.722-.337-2.719-2.062-2.719a2.463,2.463,0,0,0-2,1.116v-.8ZM931.98,20a1.026,1.026,0,1,0,1.14,1.021A1.086,1.086,0,0,0,931.98,20Z" transform="translate(-928.01 -16.05)" fill="#d4d4d4"/>
</svg>
