<svg xmlns="http://www.w3.org/2000/svg" width="16" height="16" viewBox="0 0 16 16">
  <path id="pinterest" d="M912.99,32.03a8.011,8.011,0,0,1-2.237-.317,6.828,6.828,0,0,0,.964-2.13l.375-1.806a2.6,2.6,0,0,0,1.9.93c1.526,0,4.167-1.032,4.382-4.9a4.6,4.6,0,0,0-1.164-3.569,5.774,5.774,0,0,0-4.006-1.619c-1.6,0-5.033.988-5.438,4.043-.372,2.811.857,3.677,1.261,3.962l.063.045a.456.456,0,0,0,.266.1.32.32,0,0,0,.253-.138l.376-1.02c-.057-.036-1.366-.917-.5-3.184a3.966,3.966,0,0,1,3.685-2.4h.064a3.489,3.489,0,0,1,2.415.882,3.1,3.1,0,0,1,.794,2.3c-.036,3.254-1.619,4.149-2.451,4.168h-.043a1.2,1.2,0,0,1-1.281-.931,6.3,6.3,0,0,1,.561-2.505l.011-.035a1.963,1.963,0,0,0-.121-1.768,1.02,1.02,0,0,0-.826-.433,1.763,1.763,0,0,0-1.521,1.7,2.775,2.775,0,0,0,.268,1.628c-.008.033-.932,3.8-1.091,4.579a7.634,7.634,0,0,0-.045,1.793,8,8,0,1,1,3.089.618Z" transform="translate(-904.99 -16.03)" fill="#d4d4d4"/>
</svg>
