<svg xmlns="http://www.w3.org/2000/svg" xmlns:xlink="http://www.w3.org/1999/xlink" width="50.36" height="50.36" viewBox="0 0 50.36 50.36">
  <defs>
    <clipPath id="clip-path">
      <circle id="date_kopia" data-name="date kopia" cx="25.18" cy="25.18" r="25.18" transform="translate(305.94 589.01)" fill="#22aaec"/>
    </clipPath>
  </defs>
  <g id="Clip" transform="translate(-305.94 -589.01)" clip-path="url(#clip-path)">
    <path id="user-male-icon" d="M308.511,639.153V628.276l16.709-8.757v-4.33c-1.656-2.548-2.766-5.537-2.766-6.986a18.614,18.614,0,0,1,.167-2.575,15.46,15.46,0,0,1,.435-2.974l.253-3.09.435-1.219,1.623-.683.021-.028-.687-1.289.174-1.045,1.044.087.87-.7.957-.261.309.617a13.915,13.915,0,0,1,4.3-2.009l-.261.783,3.741-1.914-.869,2,.957,1.827.435.435.609.087.261.348,2.175,3.045-1.392,1.306.609.7,1.827,1.48-.261.869-1.13,1.566-.046,0a17.975,17.975,0,0,1,.181,2.634c0,1.5-1.14,4.554-2.834,7.114v4.143h.127l16.58,8.643v11.05Z" fill="#ddd" opacity="0.502"/>
  </g>
</svg>
