<svg xmlns="http://www.w3.org/2000/svg" width="15.996" height="13.112" viewBox="0 0 15.996 13.112">
  <path id="twitter_bird" data-name="twitter bird" d="M882.458,23.343c0,1.585,1.367,2.4,2.863,2.7a2.077,2.077,0,0,1-1.415.243c.416,1.3,1.593,1.745,3.024,1.771a6.479,6.479,0,0,1-4.093,1.153,6.61,6.61,0,0,1-.78-.046,9.615,9.615,0,0,0,5.014,1.842,8.516,8.516,0,0,0,8.937-8.79q0-.213-.009-.423a8.8,8.8,0,0,0,2.055-1.756c-.587.26-1.27.013-1.932.092a2.68,2.68,0,0,0,1.6-2.106,7.982,7.982,0,0,1-2.237,1.028,3.385,3.385,0,0,0-2.387-1.158,3.245,3.245,0,0,0-3,3.484,2.518,2.518,0,0,0,.053.652c-2.718-.136-5.6-1.028-7.216-3.007a3.255,3.255,0,0,0-.443,1.644,3.566,3.566,0,0,0,1.748,2.722C883.7,23.374,883.8,23.718,882.458,23.343Z" transform="translate(-882.057 -17.896)" fill="#d4d4d4"/>
</svg>
